Coordinates
version=1
nRows=10
nColumns=28
inDegrees=yes

Units are S.I. units (second, meters, Newtons, ...)
Angles are in degrees.

endheader
time	pelvis_tilt	pelvis_list	pelvis_rotation	pelvis_tx	pelvis_ty	pelvis_tz	hip_flexion_r	hip_adduction_r	hip_rotation_r	knee_angle_r	ankle_angle_r	subtalar_angle_r	mtp_angle_r	hip_flexion_l	hip_adduction_l	hip_rotation_l	knee_angle_l	socket_flexion	socket_adduction	socket_rotation	socket_tx	socket_ty	socket_tz	foot_flex	lumbar_extension	lumbar_bending	lumbar_rotation
      0.97916667	      3.92371395	     -4.36050360	     -3.42398128	      0.39888136	      1.01874979	      0.29431120	      2.23670313	     12.69551558	      9.49638496	    -17.81921342	      2.39895108	    -25.15514095	     17.95931936	     15.89178216	    -11.82674112	      3.01798515	    -53.04273980	     10.84527334	     11.45143304	     13.44258501	      0.09992382	      0.06670492	     -0.05621609	      2.36031279	    -12.87495374	      3.60059273	     11.57209955
      0.98333333	      3.89906995	     -4.32791205	     -3.74500646	      0.40359027	      1.01936900	      0.29491326	      1.78755841	     12.58362086	      9.52015271	    -17.52905758	      2.41867165	    -24.86449007	     18.10134163	     16.46233681	    -11.86272013	      3.05515541	    -52.96834510	     10.67121358	     11.45367445	     13.39118568	      0.09956849	      0.06663982	     -0.05634069	      2.35771005	    -12.85141831	      3.46811292	     11.75620685
      0.98750000	      3.84869717	     -4.28629938	     -4.03693762	      0.40812178	      1.01993777	      0.29537480	      1.34361699	     12.45880508	      9.66938779	    -17.16331075	      2.41597802	    -24.47701752	     18.27654442	     17.07207859	    -11.84932460	      3.17792089	    -52.86288360	     10.48022591	     11.45554836	     13.40834088	      0.09911306	      0.06651307	     -0.05662548	      2.36103424	    -12.85220394	      3.36089921	     12.00551142
      0.99166667	      3.84256927	     -4.28882958	     -4.40042208	      0.41255113	      1.02046877	      0.29582728	      1.01460919	     12.37671972	      9.60730875	    -17.12402053	      2.42395382	    -24.41752949	     18.30602247	     17.50397839	    -11.84566998	      3.26627445	    -52.63656500	     10.25952935	     11.45915590	     13.39816897	      0.09846801	      0.06557807	     -0.05657695	      2.39085210	    -12.92337999	      3.35311706	     12.04837939
      0.99583333	      3.76591869	     -4.23995150	     -4.61200477	      0.41723064	      1.02103467	      0.29634814	      0.47059660	     12.25039565	      9.89950436	    -16.51310553	      2.39201967	    -23.86446237	     18.52858099	     18.17979333	    -11.83834182	      3.43682813	    -52.53166567	     10.06186365	     11.44627082	     13.38948777	      0.09798524	      0.06579311	     -0.05686556	      2.36775941	    -12.82369803	      3.18190868	     12.40558839
      1.00000000	      3.72887921	     -4.23673777	     -4.96822862	      0.42155782	      1.02150414	      0.29679059	      0.16397086	     12.14754485	      9.86795604	    -16.41314355	      2.39004423	    -23.73875517	     18.58838496	     18.63431151	    -11.85434174	      3.53582717	    -52.27478125	      9.80830953	     11.45915590	     13.36950931	      0.09711336	      0.06485465	     -0.05697931	      2.40167781	    -12.91234143	      3.19648190	     12.49911157
      1.00416667	      3.68953517	     -4.24295226	     -5.29405703	      0.42595509	      1.02198000	      0.29735556	     -0.20067399	     12.08067211	      9.89346240	    -16.21837723	      2.38302569	    -23.55760372	     18.66246550	     19.11989400	    -11.86206102	      3.67080202	    -52.02164509	      9.56041371	     11.45915590	     13.35213021	      0.09636128	      0.06414657	     -0.05694202	      2.41604574	    -12.94811534	      3.12380368	     12.61684877
      1.00833333	      3.60352899	     -4.22286036	     -5.54325162	      0.43049670	      1.02242212	      0.29775837	     -0.63285301	     11.96862039	     10.08970765	    -15.78386195	      2.34647338	    -23.16821048	     18.81223935	     19.66199152	    -11.88036372	      3.88710787	    -51.76335719	      9.30909099	     11.45915590	     13.33225451	      0.09523333	      0.06354919	     -0.05750133	      2.40619167	    -12.89576599	      3.05455795	     12.87467381
      1.01250000	      3.46184581	     -4.28749108	     -5.77457635	      0.43526513	      1.02279008	      0.29818907	     -1.09870545	     11.95869875	     10.41602053	    -15.21688153	      2.24566423	    -22.47176440	     19.10927165	     20.17927007	    -11.91480063	      4.18195511	    -51.45223878	      9.00546692	     11.42884652	     13.26452810	      0.09409469	      0.06238254	     -0.05744581	      2.40296714	    -12.68419783	      3.01141344	     13.34456462
      1.01666667	      3.44977677	     -4.31672235	     -6.09762181	      0.43944012	      1.02320441	      0.29868176	     -1.37321122	     11.90937955	     10.34926650	    -15.23033176	      2.24755309	    -22.43056541	     19.13523381	     20.58514743	    -11.92305308	      4.27734302	    -51.14846979	      8.73662005	     11.31719319	     13.24265758	      0.09303549	      0.06137331	     -0.05705195	      2.44099244	    -12.79215053	      2.99665033	     13.37552532
